/* XPM */
static char * manitou_logo_xpm[] = {
"46 67 256 2",
"  	c None",
". 	c #020202",
"+ 	c #626662",
"@ 	c #9A8A42",
"# 	c #BAB25E",
"$ 	c #961216",
"% 	c #42CEF6",
"& 	c #62563A",
"* 	c #D6D68A",
"= 	c #5E5222",
"- 	c #5E1212",
"; 	c #56421A",
"> 	c #9D6A41",
", 	c #DEDEDE",
"' 	c #6A8E96",
") 	c #962212",
"! 	c #966A36",
"~ 	c #323232",
"{ 	c #D6CB64",
"] 	c #CEB67A",
"^ 	c #C6C6C6",
"/ 	c #E6E6E6",
"( 	c #0A1212",
"_ 	c #969642",
": 	c #8E5A22",
"< 	c #826626",
"[ 	c #6A1A22",
"} 	c #221A1A",
"| 	c #AE3212",
"1 	c #969696",
"2 	c #E6EEF6",
"3 	c #628686",
"4 	c #C2BA96",
"5 	c #7A662A",
"6 	c #A6421A",
"7 	c #D6C6A6",
"8 	c #867A6A",
"9 	c #9E724A",
"0 	c #BAAE56",
"a 	c #521E1A",
"b 	c #6A5A22",
"c 	c #86AEB6",
"d 	c #2A2B29",
"e 	c #7A6A52",
"f 	c #72521E",
"g 	c #663266",
"h 	c #9E6232",
"i 	c #D31232",
"j 	c #B6B6B6",
"k 	c #525258",
"l 	c #D67A12",
"m 	c #8E8686",
"n 	c #B6A686",
"o 	c #762E2E",
"p 	c #968E86",
"q 	c #6A5A52",
"r 	c #3A4A4A",
"s 	c #727272",
"t 	c #AF9A51",
"u 	c #26262E",
"v 	c #D6D69E",
"w 	c #EEF2EA",
"x 	c #D6C69E",
"y 	c #9E866A",
"z 	c #CEBE9E",
"A 	c #B65A22",
"B 	c #8E7632",
"C 	c #D2BE5E",
"D 	c #865A2A",
"E 	c #523212",
"F 	c #BEAE86",
"G 	c #B6A68E",
"H 	c #9A6666",
"I 	c #726A5A",
"J 	c #B2A652",
"K 	c #723A0A",
"L 	c #AE4A12",
"M 	c #461E1A",
"N 	c #A6968E",
"O 	c #AE9242",
"P 	c #1A2222",
"Q 	c #C26E62",
"R 	c #725A42",
"S 	c #D6364A",
"T 	c #7A7262",
"U 	c #927A36",
"V 	c #9E7A62",
"W 	c #A69642",
"X 	c #D6CA6E",
"Y 	c #121212",
"Z 	c #BEBEBE",
"` 	c #861212",
" .	c #C2B25B",
"..	c #C66212",
"+.	c #121A1A",
"@.	c #8E8E8E",
"#.	c #D6D6CE",
"$.	c #CCAE52",
"%.	c #624212",
"&.	c #A21216",
"*.	c #D6CA87",
"=.	c #A6A6A6",
"-.	c #232222",
";.	c #BE6A22",
">.	c #865222",
",.	c #CECECE",
"'.	c #868686",
").	c #BE9E6A",
"!.	c #C2BA5E",
"~.	c #7A4A1A",
"{.	c #DEC6A6",
"].	c #B2A692",
"^.	c #361E1A",
"/.	c #9E7A42",
"(.	c #424242",
"_.	c #A68A41",
":.	c #725A26",
"<.	c #CEB696",
"[.	c #3E362B",
"}.	c #C29646",
"|.	c #B69662",
"1.	c #866A40",
"2.	c #B64A1A",
"3.	c #422E1A",
"4.	c #BAA652",
"5.	c #4A4A36",
"6.	c #C8BA78",
"7.	c #9E9E9E",
"8.	c #C6521A",
"9.	c #AEA69E",
"0.	c #7A7276",
"a.	c #7E7E7E",
"b.	c #761212",
"c.	c #5A5A5A",
"d.	c #BB9E4F",
"e.	c #92823E",
"f.	c #BEB6B6",
"g.	c #625246",
"h.	c #4B4A49",
"i.	c #AEAEA6",
"j.	c #7E5F23",
"k.	c #D61E3E",
"l.	c #D6CA76",
"m.	c #AE8652",
"n.	c #72624A",
"o.	c #664A1E",
"p.	c #C2AE59",
"q.	c #866242",
"r.	c #363236",
"s.	c #C2AEAA",
"t.	c #A6262E",
"u.	c #96622A",
"v.	c #A69E8E",
"w.	c #CBB25B",
"x.	c #FAFEFA",
"y.	c #A6924A",
"z.	c #9A7E36",
"A.	c #D6BE8E",
"B.	c #CEBF95",
"C.	c #725A3A",
"D.	c #626261",
"E.	c #6E5216",
"F.	c #6A6A6A",
"G.	c #9F8A3F",
"H.	c #866E2E",
"I.	c #D65A12",
"J.	c #CEAE6E",
"K.	c #DED6CE",
"L.	c #D6CE94",
"M.	c #9E8246",
"N.	c #1A1A1A",
"O.	c #AA1222",
"P.	c #C6A67A",
"Q.	c #C64A12",
"R.	c #A18662",
"S.	c #CEC6B6",
"T.	c #6E1212",
"U.	c #A68E7A",
"V.	c #3A3A3A",
"W.	c #D6D6D6",
"X.	c #CDBE7A",
"Y.	c #7A6242",
"Z.	c #664A12",
"`.	c #5A524A",
" +	c #666666",
".+	c #B29E4A",
"++	c #D6CE78",
"@+	c #CCBA6E",
"#+	c #4A2612",
"$+	c #82622E",
"%+	c #775E2D",
"&+	c #BA8E4A",
"*+	c #7A7A7A",
"=+	c #B6A666",
"-+	c #CABA5E",
";+	c #B29643",
">+	c #6A4A32",
",+	c #322E30",
"'+	c #7A522A",
")+	c #D6C25A",
"!+	c #867A7A",
"~+	c #BEB26E",
"{+	c #8E5A32",
"]+	c #323A3A",
"^+	c #A28E46",
"/+	c #C2A64E",
"(+	c #D6CEAE",
"_+	c #DECEAB",
":+	c #CE5A12",
"<+	c #C2AE66",
"[+	c #CAB68E",
"}+	c #764A2E",
"|+	c #EEEDEC",
"1+	c #D6BE9E",
"2+	c #9E823D",
"3+	c #D6CEB6",
"4+	c #7A6A62",
"5+	c #AE9E96",
"6+	c #7A5A42",
"7+	c #9A8E52",
"8+	c #B8AC64",
"9+	c #AE9652",
"0+	c #A68E5A",
"a+	c #B11220",
"b+	c #E6CEA6",
"c+	c #6E7676",
"d+	c #D6C25E",
"e+	c #5A525A",
"f+	c #926A46",
"g+	c #8E6232",
"h+	c #B29E52",
"i+	c #A6864A",
"j+	c #6A625A",
"k+	c #76623A",
"l+	c #CDC27A",
"m+	c #AA8E52",
"n+	c #BAA65A",
"o+	c #665222",
"p+	c #9E968E",
"q+	c #7A624F",
"r+	c #CE6214",
"s+	c #D6BE96",
"t+	c #966234",
"u+	c #825E2E",
"v+	c #96823F",
"w+	c #CABA93",
"x+	c #661212",
"y+	c #C6AE86",
"z+	c #CEBA5E",
"A+	c #D6C266",
"B+	c #D6CE85",
"C+	c #865A32",
"D+	c #5B5B62",
"E+	c #C2B666",
"F+	c #AEAEAE",
"G+	c #D6CA7A",
"                                } + x.+ } + x.+ } + x.+ x.}                                 ",
"                            } } } } x.x.x.} } } x.x.x.x.} } } }                             ",
"                          x.x.+ x.x.w + x.x.x.D.x.x.w D.x.x.x.+ x.                          ",
"                        x.x.x.x.x.x.x.x.w x.x.w x.x.x.x.x.x.x.x.x.x.                        ",
"                    x.D.x.D+x.D.x.D.x.+ x.D.x.D.x.D.x.D.x.D+x.D.x.D.x.+                     ",
"                  x.x.x.x.x.x.w x.x.x.x.x.x.x.x.x.w x.x.x.x.x.w x.x.x.x.x.                  ",
"                  x.w D.x.+.N.} x.w x.D++.N.N.D.x.x.x.Y N.N.x.D.x.w } N.}                   ",
"                } x.x.x.x.x.} N.x.x.x.x.x.} +.x.x.x.} x.x.x.N.x.x.x.x.} } x.                ",
"              } } D.x.D.x.+ N.} x.D.x.D.x.} } D.x.Y } D.x.D.} N.x.D.x.P } D.x.              ",
"            x.} +.x.x.w x.x.} Y x.x.x.x.x.} +.x.x.} N.x.x.x.} N.x.x.x.} N.x.x.}             ",
"            x.} } x.x.D.x.x.} } x.w x.D+x.} } D.x.} N.D.x.x.N.} x.w x.} } x.x.}             ",
"          x.x.} Y x.x.x.x.x.} N.x.x.x.x.x.} +.x.x.} N.x.x.x.} N.x.x.x.} N.x.x.} }           ",
"          D.x.} } D.x.D.x.+ N.} x.D.x.D.x.} } D.x.N.} D.x.D.} } x.D.x.N.} D.x.N.}           ",
"        x.x.x.} +.x.x.w x.x.} Y x.x.x.x.|+} N./ x.x.+.x.x.x.N.x.x.x.x.} N.x.x.x.} x.        ",
"        x.x.N.M.U z.7+@ e.e.@ z.e.e.v+@ ^+y.2+_.v+G.^+z.@ @ z.U e.e.v+@ @ k+b + x.}         ",
"      x.x.x.x.l+].u+B ^+^+t t J J 4. . .E+/+p.# /+4.4.J J J J J J t h+y.o.E E.x.x.x.x.      ",
"      D.x.D.x.w+#.8+f f E+w./+w.z+C { )+{ {  .&+# !.C -+-+-+-+w. . .J Z.o+k+%+k s D.x.      ",
"      x.x.x.x.4 #.++/+2+E ^+)+{ d+X { w.S H K +.O.> y. .C -+C C -+G.%.2+@ 5 %+,+c+x.x.      ",
"    x.D.x.w x.4 #.X /+w./+j.f w.++++Q k...8.| ) | P.t.7+8+z+A+E+< f O J v+5 %+u  +x.x.D.    ",
"    w x.x.x.x.4 #.{ $.w.)+)+;+E.v+X k.| | | ) K ) Q.).}+_ d+4.Z.< p.4.t e.%+%+u + x.x.x.    ",
"    x.D.x.D.x.w+#.*.w.)+)+X ++X B ! ;.Q.> (.. . ~ 8.Q.$ 1.1.%..+-+4..+t e.k+b u  +D.x.D.    ",
"  } Y x.x.x.x.4 #.l.z+C X X X X l.Q 8.r+a.r.. . ,+q+:+}.b.E J -+p.4..+t U %+:.d F.x.} } }   ",
"  } } D.x.x.N.w+#.*.d+A+X X l.X X Q 8.r+'.=.. V.r.V 8.P.O.}+^+p.p.4..+y.U %+:.u  +} x.+ x.  ",
"  } P w x.} } 4 #.B+A+X X l.G+G+l+k...r+7.% `.s c p I.).a+; e.d.J d..+W U :.= u F.N.x.x.x.  ",
"  } } D.x.N.} 4 #.*.X X A+*.A+B+8+a+).Q.J.% g.a.3 F l S O.^.%+4.d..+O ^+B :.:.u F.} x.D+x.  ",
"  } N.x.x.} } w+W.*.G+G+G+*.* /+o+t.^ A H ).) 1.L U.i a+$ 3.#+2+p..+;+y.H.b b d  +N.x.x.x.  ",
"x.} } D.x.N.} 4 #.L.l.l.G+G+y.E.@+,.,.9.i U.Q.L 6 i f.&.[ = @ Z.H.d.y.2+H.b o.u  +} x.D.x.} ",
"x.} N.x.x.} } w+#.L.G+++l+H.H.l.,.^ ^ 1 % ' r !+D+% i.` ; 5 0 .+E.:.y.2+B o+%.d F.N.x.x.x.} ",
"x.N.} D.x.+ } w+#.v ++@+o._.G+B+^ i.f.@.S.,.r a. +,.i.- ; e./+.+d.Z.E.2+H.o+o.u  +} x.D+x.} ",
"} } } +.x.x.x.w+W.L.t o.<+* G+G+W.W.W.=.F y F.*+<.S.j j a U /+.+t O j.%.u+= o.d F.x.} N.} x.",
"x.x.x.D.x.x.x.4 #.f+5 E+B+l+l+W., ,.j 3+7 ] y ] 7 7 n T.#+< t ;+O G.2+f E ; o.u  +x.x.+ x.x.",
"x.x.x.x.w x.x.] 1.1.F E+X.X.X.,.Z j ^ 1+z z &+(+F A._+P.- ; B G.@ 2+z.$+; #+; u + x.x.x.x.x.",
"x.D+x.+ x.D.x.U z.l+~+8+=+8+=+^ ^ W.S.7 7 *.d.b+1+n {.R.- ; 5 B B j.H.$+%+; #+r.s D.x.D+x.D.",
"x.x.x.x.x.x.x.4+4+& 5.5.5.5.K.,.,.^ f._+z 7 |.A.w+w+w+_.x+^.d [.[.[.[.[.r.r.r.h.a.x.x.x.x.x.",
"x.N.N.N.x.w x.D.a.D+k h.h.k j ^ Z =.N _+w+b+O |.7 A./.F o M ,+5.k h.k `.`.`.k s x.x.w N.} } ",
"x.x.} N.x.x.x.x.x.} } x.x.x.#., , =.=.P.y+m.i+I i+R.u.<.s.x.,+0.x.x.x.} x.x.x.N.x.x.x.x.} } ",
"x.D+} } x.D.x.D.x.N.} + x./ , #.m i.j {+q.u.8 I >.C+D U.|+D.-.} x.D.} } x.D.x.N.} D.x.D.N.} ",
"x.x.} Y x.x.x.x.x.} } x.K.W.,.W.F.@.U.u+'+{+8 q+~.C.C+! x.x.} N.x.x.} N.x.x.x.} +.x.x.x.} } ",
"x.x.} } x.w x.D+x.N.} D.W.,./ '.=.7.y : q+D T T h '+Y.> x.x.} } x.x.N.} x.w x.} } x.x.+ N.} ",
"x.x.} N.x.x.x.x.x.} N.x./ / W.s 7.F+y >.R : c+s D >.j+u.x.x.} N.x.x.} N.x.x.x.} Y x.x.x.} } ",
"  + N.} x.D.x.D.x.} } , , W.=.^ @.@.{+D R f+0.D.q+D R u.j D.N.} x.D+} } x.D.x.} } D.x.+ N.  ",
"  x.} N.w x.x.x.x.} / / , / 7.Z =.i.{+n.g+T m F.@.'+6+t+f.x.} N.x.x.x.N.x.x.x.+.x.x.x.x.}   ",
"  } P } } x.x.D++.2 |+/ , 7.j =.1 5+q+C+f+*+a.s j >+6+y x.N.} } } x.x.D.N.} } D.x.w x.N.}   ",
"  x.x.x.x.x.x.x.K./ / , ,  +W.=.=.y R q.p+*+F. +j q n.V j x.x.x.x.w x.x.x.x.x.x.x.x.x.x.x.  ",
"  D.x.D.x.D+x.+ w |+/ / j =.^ j 9.e >.D.m m *+s j I q.y j D.x.D.x.D.x.D+x.D.x.D.x.D.x.D.x.  ",
"    w x.x.x.x.#./ |+/ |+F.W.j j N e 9 s @.a.'.*+j *+! 5+f.w x.x.x.x.x.x.x.x.w x.x.x.x.x.    ",
"    x.D.x.x.N Z 2 W., 7.=.,.j Z 9.i.1 *+1 s F.'.7.@.9.i.x.x.x.c.x.x.w + x.x.x.D.x.w x.D.    ",
"    N.w x.x.g ]+, , / F.W.W.i.^ ^ =.h.@.1 '. +1 F.j j i.9.} +.x.x.x.x.N.N.N.w x.x.x.N.}     ",
"      } x.+ ( ( 1 , a., W.^ =.,.Z F+F.@.'.*+s i.D.j F+F+x.D.x.N.x.D.x.D.} } x.D.x.N.x.      ",
"      N.} q+Y Y h.Z @.W.^ *+j ^ Z F+h.7.@.D.7.Z F.Z j =.j x.x.N.Y x.x.x.} +.x.x.} } x.      ",
"      } } g Y . ( h.=.F+D+( j Z F+F.7.'.a.+ F+j F.j j =.x.w x.} } x.x.+ N.} x.D.N.} x.      ",
"        } H ( ( Y c.P V.( . *+^ Z h.=.@.+ [.Z Z  +=.i.7.x.x.x.} N.w x.x.} +.x.x.N.}         ",
"        } g ( . ( h.N.+.. ( d F+=.c.@.c.P  +Z ^ a.F+m F.x.D.x.} } + x.+ } } x.+ } }         ",
"          x.Y . ,+Y ( N.( . ( h.a.h.[.( ( s j F+F.7.+ c.x.x.x.P } w x.x.} N.x.x.}           ",
"          x.h.. r.Y Y Y g.. . Y h.P ( . ( r.F.s c.h.u g x.x.x.N.x.x.x.D.N.} x.D.x.          ",
"            x.. ~ -.+.Y x.(.( +.r.( . u +.N.+.d h.+.( N N.N.} x.x.x.x.N.} N.N.x.            ",
"            x.N u u (.N x.N ( ~ ( ( . U.Y Y ( -.h.( Y D.x.D.x.D.x.c.x.D.x.D.x.D.            ",
"              x.x.x.x.x.w x.-.(.. . [.w H Y Y u } ( g x.x.x.x.x.x.x.x.x.x.x.x.              ",
"                x.x.x.+ x.x.w m H N x.D.x.Y ( (.. ( x.D+x.w x.D+x.x.w + x.x.                ",
"                  x.x.x.x.x.x.x.x.x.x.x.w N ,+(.( H x.x.x.x.x.x.x.x.x.w x.                  ",
"                  D.x.D+x.D+x.D.x.D.x.+ x.D.x.+ x.D.x.D.x.D.x.D.x.D.x.D.x.                  ",
"                    x.x.x.x.x.x.x.w x.x.x.x.x.x.x.x.x.x.w x.w x.x.x.x.x.                    ",
"                        x.x.w } } } x.D+x.x.N.} N.w x.+ x.N.} N.x.x.                        ",
"                          x.} x.x.x.} x.x.w x.} N.x.x.x.N.x.x.x.N.                          ",
"                            } + x.D.N.} x.D.x.} } D.x.N.} D.x.D.                            ",
"                                x.x.} N.x.x.x.} N.x.x.} +.x.                                ",
"                                      } x.x.x.N.} x.x.                                      "};
