/* XPM */
static char *quit2[] = {
/* width height num_colors chars_per_pixel */
"    14    15       23            1",
/* colors */
". c #000000",
"# c None",
"a c #070707",
"b c #090909",
"c c #0f0f0f",
"d c #181818",
"e c #2b2b2b",
"f c #353535",
"g c #383838",
"h c #3d3d3d",
"i c #424242",
"j c #6d6d6d",
"k c #727272",
"l c #777777",
"m c #787878",
"n c #7c7c7c",
"o c #808080",
"p c #888888",
"q c #d3d3d3",
"r c #d7d7d7",
"s c #dbdbdb",
"t c #e0e0e0",
"u c #e4e4e4",
/* pixels */
"##############",
"######d.######",
"######.b######",
"###.##c.##.###",
"##f..#.b#.ae##",
"#k.a##..##a.l#",
"#f.k#u..##o.h#",
"#.a##t.a##rb.#",
"#..##r..##u..#",
"#haj#sb.#tm.i#",
"#j.c#####q..n#",
"#sf.al##paag##",
"##rh..ca..e###",
"###qnf..gl####",
"##############"
};
